<?xml version="1.0" encoding="UTF-8" standalone="no"?>
<!-- Created with Inkscape (http://www.inkscape.org/) -->

<svg
   width="500"
   height="160"
   viewBox="0 0 132.29167 42.333334"
   version="1.1"
   id="svg173567"
   inkscape:version="1.1.2 (0a00cf5339, 2022-02-04)"
   sodipodi:docname="mh-rf2_logo.svg"
   xmlns:inkscape="http://www.inkscape.org/namespaces/inkscape"
   xmlns:sodipodi="http://sodipodi.sourceforge.net/DTD/sodipodi-0.dtd"
   xmlns="http://www.w3.org/2000/svg"
   xmlns:svg="http://www.w3.org/2000/svg">
  <sodipodi:namedview
     id="namedview173569"
     pagecolor="#ffffff"
     bordercolor="#666666"
     borderopacity="1.0"
     inkscape:pageshadow="2"
     inkscape:pageopacity="0.0"
     inkscape:pagecheckerboard="0"
     inkscape:document-units="px"
     showgrid="false"
     inkscape:snap-page="true"
     units="px"
     fit-margin-top="0"
     fit-margin-left="0"
     fit-margin-right="0"
     fit-margin-bottom="0"
     inkscape:snap-global="true"
     inkscape:current-layer="layer1"
     inkscape:snap-bbox="false"
     inkscape:snap-bbox-midpoints="true" />
  <defs
     id="defs173564" />
  <g
     inkscape:label="Ebene 1"
     inkscape:groupmode="layer"
     id="layer1"
     transform="translate(0,-11.000525)">
    <path
       d="m 6.6614915,18.567874 h 2.932215 l 2.3807835,8.612835 2.442054,-8.612835 h 2.809674 v 11.947682 h -1.85561 V 20.31845 L 12.534674,30.515556 H 11.099202 L 8.315786,20.309698 V 30.515556 H 6.6614915 Z"
       style="font-size:17.9259px;line-height:1.25;font-family:'Franklin Gothic Medium Cond';-inkscape-font-specification:'Franklin Gothic Medium Cond';fill:#ffffff;stroke-width:0.264583"
       id="path827" />
    <path
       d="m 27.720923,24.537339 q 0,3.063508 -1.094111,4.630274 -1.09411,1.566765 -3.177295,1.566765 -2.091939,0 -3.203554,-1.558012 -1.111616,-1.566766 -1.111616,-4.639027 0,-3.046003 1.102863,-4.612768 1.102863,-1.575519 3.203554,-1.575519 2.074433,0 3.177296,1.566766 1.102863,1.558013 1.102863,4.621521 z m -2.074433,0 q 0,-2.12695 -0.498914,-3.343601 -0.490162,-1.225403 -1.724318,-1.225403 -1.234156,0 -1.724317,1.225403 -0.490162,1.225404 -0.490162,3.343601 0,2.083185 0.481409,3.326095 0.481408,1.242909 1.759329,1.242909 1.199144,0 1.698059,-1.199145 0.498914,-1.207898 0.498914,-3.369859 z"
       style="font-size:17.9259px;line-height:1.25;font-family:'Franklin Gothic Medium Cond';-inkscape-font-specification:'Franklin Gothic Medium Cond';fill:#ffffff;stroke-width:0.264583"
       id="path829" />
    <path
       d="m 29.620297,18.567874 h 2.687134 q 1.951893,0 3.116026,0.691478 1.172886,0.691477 1.768082,2.056927 0.603948,1.365449 0.603948,3.028496 0,1.750577 -0.542678,3.124779 -0.533926,1.365449 -1.645542,2.205726 -1.102863,0.840276 -3.151037,0.840276 h -2.835933 z m 1.978151,1.584272 v 8.779139 h 0.822771 q 1.724317,0 2.503324,-1.190392 0.779006,-1.199144 0.779006,-3.194801 0,-4.393946 -3.28233,-4.393946 z"
       style="font-size:17.9259px;line-height:1.25;font-family:'Franklin Gothic Medium Cond';-inkscape-font-specification:'Franklin Gothic Medium Cond';fill:#ffffff;stroke-width:0.264583"
       id="path831" />
    <path
       d="m 39.694863,18.567874 h 2.687134 q 1.951893,0 3.116026,0.691478 1.172886,0.691477 1.768082,2.056927 0.603948,1.365449 0.603948,3.028496 0,1.750577 -0.542678,3.124779 -0.533926,1.365449 -1.645542,2.205726 -1.102863,0.840276 -3.151037,0.840276 h -2.835933 z m 1.978151,1.584272 v 8.779139 h 0.822771 q 1.724317,0 2.503323,-1.190392 0.779007,-1.199144 0.779007,-3.194801 0,-4.393946 -3.28233,-4.393946 z"
       style="font-size:17.9259px;line-height:1.25;font-family:'Franklin Gothic Medium Cond';-inkscape-font-specification:'Franklin Gothic Medium Cond';fill:#ffffff;stroke-width:0.264583"
       id="path833" />
    <path
       d="m 49.760676,18.567874 h 1.978151 v 11.947682 h -1.978151 z"
       style="font-size:17.9259px;line-height:1.25;font-family:'Franklin Gothic Medium Cond';-inkscape-font-specification:'Franklin Gothic Medium Cond';fill:#ffffff;stroke-width:0.264583"
       id="path835" />
    <path
       d="m 53.970814,18.567874 h 2.328266 l 3.930043,8.612835 v -8.612835 h 1.654295 V 30.515556 H 60.03656 l -4.411452,-9.566898 v 9.566898 h -1.654294 z"
       style="font-size:17.9259px;line-height:1.25;font-family:'Franklin Gothic Medium Cond';-inkscape-font-specification:'Franklin Gothic Medium Cond';fill:#ffffff;stroke-width:0.264583"
       id="path837" />
    <path
       d="M 68.167986,24.38854 H 72.1593 v 6.214545 h -1.050346 l -0.262586,-1.514248 q -0.9103,1.645541 -2.879698,1.645541 -2.004409,0 -3.133531,-1.619283 -1.129122,-1.628035 -1.129122,-4.411451 0,-2.932215 1.111616,-4.639027 1.120369,-1.715565 3.431129,-1.715565 3.22106,0 3.851268,3.641199 l -1.785588,0.446397 q -0.315104,-1.540507 -0.849029,-1.995657 -0.533926,-0.45515 -1.260415,-0.45515 -2.407042,0 -2.407042,4.542745 0,4.569004 2.468312,4.569004 2.048174,0 2.048174,-3.124779 h -2.144456 z"
       style="font-size:17.9259px;line-height:1.25;font-family:'Franklin Gothic Medium Cond';-inkscape-font-specification:'Franklin Gothic Medium Cond';fill:#ffffff;stroke-width:0.264583"
       id="path839" />
    <path
       d="m 6.6614786,35.605487 h 1.6876617 v 4.226621 h 3.0019467 v -4.226621 h 1.687662 V 45.798664 H 11.351087 V 41.258406 H 8.3491403 v 4.540258 H 6.6614786 Z"
       style="font-size:15.2935px;line-height:1.25;font-family:'Franklin Gothic Medium Cond';-inkscape-font-specification:'Franklin Gothic Medium Cond';fill:#ffffff;stroke-width:0.264583"
       id="path842" />
    <path
       d="m 16.906929,35.605487 h 1.889285 l 2.733116,10.193177 h -1.710064 l -0.642208,-2.553895 h -2.979544 l -0.627272,2.553895 h -1.612987 z m 1.93409,6.310062 -1.157467,-4.667206 -1.149999,4.667206 z"
       style="font-size:15.2935px;line-height:1.25;font-family:'Franklin Gothic Medium Cond';-inkscape-font-specification:'Franklin Gothic Medium Cond';fill:#ffffff;stroke-width:0.264583"
       id="path844" />
    <path
       d="m 22.500108,35.605487 h 1.986363 l 3.352921,7.348048 v -7.348048 h 1.411363 v 10.193177 h -1.575649 l -3.763635,-8.162009 v 8.162009 h -1.411363 z"
       style="font-size:15.2935px;line-height:1.25;font-family:'Franklin Gothic Medium Cond';-inkscape-font-specification:'Franklin Gothic Medium Cond';fill:#ffffff;stroke-width:0.264583"
       id="path846" />
    <path
       d="m 31.154975,35.605487 h 2.292531 q 1.665259,0 2.658441,0.589934 1.000649,0.589935 1.508441,1.75487 0.515259,1.164934 0.515259,2.583765 0,1.493506 -0.462987,2.665908 -0.455519,1.164934 -1.403895,1.881817 -0.940909,0.716883 -2.688311,0.716883 h -2.419479 z m 1.687661,1.351622 v 7.489932 h 0.701948 q 1.471103,0 2.135714,-1.015584 0.66461,-1.023051 0.66461,-2.725648 0,-3.7487 -2.800324,-3.7487 z"
       style="font-size:15.2935px;line-height:1.25;font-family:'Franklin Gothic Medium Cond';-inkscape-font-specification:'Franklin Gothic Medium Cond';fill:#ffffff;stroke-width:0.264583"
       id="path848" />
    <path
       d="m 39.742633,35.605487 h 3.084089 q 1.164935,0 1.769805,0.186688 0.604869,0.186688 1.023051,0.836363 0.418182,0.642208 0.418182,1.568181 0,1.695129 -1.515909,2.232792 1.829545,0.574999 1.829545,2.561362 0,1.127597 -0.72435,1.971428 -0.716883,0.836363 -2.755519,0.836363 h -3.128894 z m 1.650323,4.226621 h 1.067857 q 1.127597,0 1.486038,-0.410714 0.358442,-0.418182 0.358442,-1.075324 0,-0.769156 -0.410714,-1.097727 -0.410714,-0.336039 -1.26948,-0.336039 h -1.232143 z m 0,4.614933 h 1.359091 q 1.866882,0 1.866882,-1.650324 0,-0.642207 -0.395779,-1.149999 -0.395779,-0.507792 -1.612986,-0.507792 h -1.217208 z"
       style="font-size:15.2935px;line-height:1.25;font-family:'Franklin Gothic Medium Cond';-inkscape-font-specification:'Franklin Gothic Medium Cond';fill:#ffffff;stroke-width:0.264583"
       id="path850" />
    <path
       d="m 54.946523,40.698342 q 0,2.613635 -0.933441,3.950323 -0.933441,1.336687 -2.710713,1.336687 -1.78474,0 -2.733116,-1.32922 -0.948376,-1.336688 -0.948376,-3.95779 0,-2.598701 0.940908,-3.935388 0.940909,-1.344156 2.733116,-1.344156 1.769805,0 2.710713,1.336688 0.940909,1.32922 0.940909,3.942856 z m -1.769805,0 q 0,-1.81461 -0.425649,-2.852597 -0.418181,-1.045454 -1.471103,-1.045454 -1.052922,0 -1.471103,1.045454 -0.418182,1.045455 -0.418182,2.852597 0,1.777272 0.410714,2.837661 0.410714,1.060389 1.500974,1.060389 1.023051,0 1.4487,-1.023052 0.425649,-1.030519 0.425649,-2.874998 z"
       style="font-size:15.2935px;line-height:1.25;font-family:'Franklin Gothic Medium Cond';-inkscape-font-specification:'Franklin Gothic Medium Cond';fill:#ffffff;stroke-width:0.264583"
       id="path852" />
    <path
       d="m 63.549115,40.698342 q 0,2.613635 -0.933441,3.950323 -0.933441,1.336687 -2.710713,1.336687 -1.784739,0 -2.733116,-1.32922 -0.948376,-1.336688 -0.948376,-3.95779 0,-2.598701 0.940909,-3.935388 0.940909,-1.344156 2.733116,-1.344156 1.769804,0 2.710713,1.336688 0.940908,1.32922 0.940908,3.942856 z m -1.769804,0 q 0,-1.81461 -0.425649,-2.852597 -0.418182,-1.045454 -1.471104,-1.045454 -1.052921,0 -1.471103,1.045454 -0.418181,1.045455 -0.418181,2.852597 0,1.777272 0.410714,2.837661 0.410714,1.060389 1.500973,1.060389 1.023052,0 1.448701,-1.023052 0.425649,-1.030519 0.425649,-2.874998 z"
       style="font-size:15.2935px;line-height:1.25;font-family:'Franklin Gothic Medium Cond';-inkscape-font-specification:'Franklin Gothic Medium Cond';fill:#ffffff;stroke-width:0.264583"
       id="path854" />
    <path
       d="m 65.162104,35.605487 h 1.687662 v 4.861361 l 3.076622,-4.861361 h 1.784739 l -2.62857,3.741232 3.076622,6.451945 h -1.829544 l -2.277597,-5.055517 -1.202272,1.710064 v 3.345453 h -1.687662 z"
       style="font-size:15.2935px;line-height:1.25;font-family:'Franklin Gothic Medium Cond';-inkscape-font-specification:'Franklin Gothic Medium Cond';fill:#ffffff;stroke-width:0.264583"
       id="path856" />
    <path
       style="fill:none;stroke:#ffffff;stroke-width:1.32292;stroke-linecap:butt;stroke-linejoin:miter;stroke-miterlimit:4;stroke-dasharray:none;stroke-opacity:1"
       d="M 78.012375,18.349028 V 45.985355"
       id="path173155"
       inkscape:export-filename="/home/sven/Dokumente/0 Modding Handbook - Assetto Corsa/inputs/logo_variant01.png"
       inkscape:export-xdpi="96"
       inkscape:export-ydpi="96" />
    <text
       xml:space="preserve"
       style="font-style:normal;font-variant:normal;font-weight:900;font-stretch:normal;font-size:19.6426px;line-height:1.25;font-family:Lovelo;-inkscape-font-specification:'Lovelo, Heavy';font-variant-ligatures:normal;font-variant-caps:normal;font-variant-numeric:normal;font-variant-east-asian:normal;fill:#ffffff;fill-opacity:1;stroke:none;stroke-width:0.264583"
       x="106.58948"
       y="39.289795"
       id="text7057"><tspan
         sodipodi:role="line"
         id="tspan7055"
         style="font-style:normal;font-variant:normal;font-weight:900;font-stretch:normal;font-size:19.6426px;font-family:Lovelo;-inkscape-font-specification:'Lovelo, Heavy';font-variant-ligatures:normal;font-variant-caps:normal;font-variant-numeric:normal;font-variant-east-asian:normal;text-align:center;text-anchor:middle;fill:#ffffff;stroke-width:0.264583"
         x="106.58948"
         y="39.289795">RF2</tspan></text>
  </g>
</svg>
